<svg width="24" height="24" viewBox="0 0 24 24" fill="none" xmlns="http://www.w3.org/2000/svg">
<g clip-path="url(#clip0_531_635)">
<path d="M13.774 14.439C14.54 16.7093 15.0551 19.0566 15.31 21.439C14.2463 21.8114 13.1271 22.0011 12 22C10.0173 22.003 8.07876 21.4139 6.43303 20.308C7.19988 18.887 8.24497 17.635 9.50601 16.6265C10.7671 15.618 12.2182 14.8737 13.773 14.438L13.774 14.439ZM21.573 14.902C20.859 17.2482 19.3095 19.2513 17.218 20.532C16.9384 18.3344 16.4495 16.1686 15.758 14.064C17.7358 13.8596 19.7334 14.1475 21.573 14.902ZM12.145 10.485C12.477 11.163 12.788 11.855 13.075 12.558C9.61164 13.5731 6.67244 15.8834 4.86803 19.009C3.85409 17.97 3.07656 16.7243 2.58864 15.357C2.10072 13.9897 1.91392 12.5332 2.04103 11.087C5.38403 11.795 8.91103 11.589 12.145 10.485ZM19.72 5.644C21.3861 7.67864 22.1901 10.2843 21.96 12.904C19.7602 12.076 17.3883 11.8113 15.06 12.134C14.7386 11.3217 14.3867 10.5218 14.005 9.736C16.1474 8.7383 18.0853 7.35068 19.72 5.644ZM7.26603 3.19C8.76042 4.88504 10.0773 6.72865 11.196 8.692C8.35784 9.59595 5.33299 9.74416 2.42003 9.122C3.18669 6.58128 4.92933 4.44812 7.26603 3.19ZM12 2C14.388 2 16.581 2.837 18.3 4.234C16.8115 5.79515 15.0401 7.05953 13.08 7.96C11.976 5.9838 10.6833 4.1191 9.22003 2.392C10.1237 2.13132 11.0595 1.99936 12 2Z" fill="white"/>
</g>
<defs>
<clipPath id="clip0_531_635">
<rect width="24" height="24" fill="white"/>
</clipPath>
</defs>
</svg>
