<svg width="24" height="24" viewBox="0 0 24 24" fill="none" xmlns="http://www.w3.org/2000/svg">
<g clip-path="url(#clip0_532_639)">
<path d="M7.57321e-05 13.6945L0.0582575 4.96865C0.0684394 3.38902 1.17317 2.03484 2.69826 1.73302L11.1252 0.0624719C13.1499 -0.338983 15.0292 1.24574 15.0161 3.34247L14.9579 12.0697C14.947 13.6487 13.8423 15.0021 12.3172 15.3047L3.89026 16.9752C1.86553 17.3767 -0.0137424 15.7919 7.57321e-05 13.6945Z" fill="white" fill-opacity="0.2"/>
<path d="M4.12874 17.176L4.18692 8.44873C4.19637 6.87055 5.30183 5.5171 6.82692 5.21455L15.2538 3.54473C17.2786 3.14328 19.1578 4.72728 19.144 6.82473L19.0858 15.552C19.0756 17.1309 17.9709 18.4844 16.4458 18.7869L8.01892 20.4575C5.99419 20.8582 4.11492 19.2742 4.12874 17.1775V17.176Z" fill="white" fill-opacity="0.5"/>
<path d="M8.25751 20.6575L8.31569 11.9302C8.32587 10.3506 9.4306 8.99784 10.9557 8.6953L19.3826 7.02475C21.4073 6.6233 23.2866 8.20802 23.2728 10.3048L23.2146 19.032C23.2044 20.6117 22.0997 21.9651 20.5746 22.2669L12.1477 23.9375C10.123 24.3389 8.24369 22.7542 8.25678 20.6575H8.25751Z" fill="white" fill-opacity="0.8"/>
</g>
<defs>
<clipPath id="clip0_532_639">
<rect width="23.2727" height="24" fill="white"/>
</clipPath>
</defs>
</svg>
